%FSLAX25Y25*%
%MOIN*%
G70*
G01*
G75*
G04 Layer_Color=16711935*
%ADD10C,0.01000*%
%ADD11C,0.03150*%
G04:AMPARAMS|DCode=12|XSize=25.59mil|YSize=25.59mil|CornerRadius=3.2mil|HoleSize=0mil|Usage=FLASHONLY|Rotation=0.000|XOffset=0mil|YOffset=0mil|HoleType=Round|Shape=RoundedRectangle|*
%AMROUNDEDRECTD12*
21,1,0.02559,0.01919,0,0,0.0*
21,1,0.01919,0.02559,0,0,0.0*
1,1,0.00640,0.00960,-0.00960*
1,1,0.00640,-0.00960,-0.00960*
1,1,0.00640,-0.00960,0.00960*
1,1,0.00640,0.00960,0.00960*
%
%ADD12ROUNDEDRECTD12*%
G04:AMPARAMS|DCode=13|XSize=35.43mil|YSize=37.4mil|CornerRadius=4.43mil|HoleSize=0mil|Usage=FLASHONLY|Rotation=0.000|XOffset=0mil|YOffset=0mil|HoleType=Round|Shape=RoundedRectangle|*
%AMROUNDEDRECTD13*
21,1,0.03543,0.02854,0,0,0.0*
21,1,0.02658,0.03740,0,0,0.0*
1,1,0.00886,0.01329,-0.01427*
1,1,0.00886,-0.01329,-0.01427*
1,1,0.00886,-0.01329,0.01427*
1,1,0.00886,0.01329,0.01427*
%
%ADD13ROUNDEDRECTD13*%
G04:AMPARAMS|DCode=14|XSize=25.59mil|YSize=31.5mil|CornerRadius=1.28mil|HoleSize=0mil|Usage=FLASHONLY|Rotation=270.000|XOffset=0mil|YOffset=0mil|HoleType=Round|Shape=RoundedRectangle|*
%AMROUNDEDRECTD14*
21,1,0.02559,0.02894,0,0,270.0*
21,1,0.02303,0.03150,0,0,270.0*
1,1,0.00256,-0.01447,-0.01152*
1,1,0.00256,-0.01447,0.01152*
1,1,0.00256,0.01447,0.01152*
1,1,0.00256,0.01447,-0.01152*
%
%ADD14ROUNDEDRECTD14*%
G04:AMPARAMS|DCode=15|XSize=25.59mil|YSize=31.5mil|CornerRadius=1.28mil|HoleSize=0mil|Usage=FLASHONLY|Rotation=180.000|XOffset=0mil|YOffset=0mil|HoleType=Round|Shape=RoundedRectangle|*
%AMROUNDEDRECTD15*
21,1,0.02559,0.02894,0,0,180.0*
21,1,0.02303,0.03150,0,0,180.0*
1,1,0.00256,-0.01152,0.01447*
1,1,0.00256,0.01152,0.01447*
1,1,0.00256,0.01152,-0.01447*
1,1,0.00256,-0.01152,-0.01447*
%
%ADD15ROUNDEDRECTD15*%
G04:AMPARAMS|DCode=16|XSize=23.62mil|YSize=33.47mil|CornerRadius=2.95mil|HoleSize=0mil|Usage=FLASHONLY|Rotation=0.000|XOffset=0mil|YOffset=0mil|HoleType=Round|Shape=RoundedRectangle|*
%AMROUNDEDRECTD16*
21,1,0.02362,0.02756,0,0,0.0*
21,1,0.01772,0.03347,0,0,0.0*
1,1,0.00591,0.00886,-0.01378*
1,1,0.00591,-0.00886,-0.01378*
1,1,0.00591,-0.00886,0.01378*
1,1,0.00591,0.00886,0.01378*
%
%ADD16ROUNDEDRECTD16*%
G04:AMPARAMS|DCode=17|XSize=17.72mil|YSize=70.87mil|CornerRadius=0.89mil|HoleSize=0mil|Usage=FLASHONLY|Rotation=0.000|XOffset=0mil|YOffset=0mil|HoleType=Round|Shape=RoundedRectangle|*
%AMROUNDEDRECTD17*
21,1,0.01772,0.06909,0,0,0.0*
21,1,0.01595,0.07087,0,0,0.0*
1,1,0.00177,0.00797,-0.03455*
1,1,0.00177,-0.00797,-0.03455*
1,1,0.00177,-0.00797,0.03455*
1,1,0.00177,0.00797,0.03455*
%
%ADD17ROUNDEDRECTD17*%
G04:AMPARAMS|DCode=18|XSize=23.62mil|YSize=33.47mil|CornerRadius=2.95mil|HoleSize=0mil|Usage=FLASHONLY|Rotation=90.000|XOffset=0mil|YOffset=0mil|HoleType=Round|Shape=RoundedRectangle|*
%AMROUNDEDRECTD18*
21,1,0.02362,0.02756,0,0,90.0*
21,1,0.01772,0.03347,0,0,90.0*
1,1,0.00591,0.01378,0.00886*
1,1,0.00591,0.01378,-0.00886*
1,1,0.00591,-0.01378,-0.00886*
1,1,0.00591,-0.01378,0.00886*
%
%ADD18ROUNDEDRECTD18*%
%ADD19R,0.01772X0.07087*%
G04:AMPARAMS|DCode=20|XSize=25.59mil|YSize=25.59mil|CornerRadius=3.2mil|HoleSize=0mil|Usage=FLASHONLY|Rotation=90.000|XOffset=0mil|YOffset=0mil|HoleType=Round|Shape=RoundedRectangle|*
%AMROUNDEDRECTD20*
21,1,0.02559,0.01919,0,0,90.0*
21,1,0.01919,0.02559,0,0,90.0*
1,1,0.00640,0.00960,0.00960*
1,1,0.00640,0.00960,-0.00960*
1,1,0.00640,-0.00960,-0.00960*
1,1,0.00640,-0.00960,0.00960*
%
%ADD20ROUNDEDRECTD20*%
G04:AMPARAMS|DCode=21|XSize=35.43mil|YSize=37.4mil|CornerRadius=4.43mil|HoleSize=0mil|Usage=FLASHONLY|Rotation=90.000|XOffset=0mil|YOffset=0mil|HoleType=Round|Shape=RoundedRectangle|*
%AMROUNDEDRECTD21*
21,1,0.03543,0.02854,0,0,90.0*
21,1,0.02658,0.03740,0,0,90.0*
1,1,0.00886,0.01427,0.01329*
1,1,0.00886,0.01427,-0.01329*
1,1,0.00886,-0.01427,-0.01329*
1,1,0.00886,-0.01427,0.01329*
%
%ADD21ROUNDEDRECTD21*%
%ADD22C,0.05906*%
%ADD23C,0.04000*%
%ADD24R,0.11811X0.07874*%
%ADD25R,0.01969X0.01969*%
%ADD26R,0.12598X0.32283*%
%ADD27R,0.06000X0.06000*%
%ADD28C,0.06000*%
%ADD29R,0.06496X0.06496*%
%ADD30C,0.06496*%
%ADD31R,0.06496X0.06496*%
%ADD32C,0.10236*%
%ADD33C,0.19685*%
%ADD34C,0.03000*%
%ADD35C,0.01969*%
%ADD36R,0.14173X0.33858*%
%ADD37C,0.00787*%
%ADD38C,0.00800*%
%ADD39C,0.00591*%
%ADD40R,0.06800X0.06800*%
%ADD41C,0.06800*%
%ADD42C,0.11036*%
%ADD43C,0.20485*%
D10*
X207874Y-425197D02*
Y-418504D01*
X201181Y-425197D02*
Y-418504D01*
X201181Y-425197D02*
X207874D01*
X201181Y-418504D02*
X207874D01*
X201181D02*
X207874Y-425197D01*
X201181D02*
X207874Y-418504D01*
X212992Y-418018D02*
Y-424016D01*
X215991D01*
X216991Y-423016D01*
Y-422016D01*
X215991Y-421017D01*
X212992D01*
X215991D01*
X216991Y-420017D01*
Y-419017D01*
X215991Y-418018D01*
X212992D01*
X219990Y-424016D02*
X221989D01*
X222989Y-423016D01*
Y-421017D01*
X221989Y-420017D01*
X219990D01*
X218990Y-421017D01*
Y-423016D01*
X219990Y-424016D01*
X225988Y-419017D02*
Y-420017D01*
X224988D01*
X226988D01*
X225988D01*
Y-423016D01*
X226988Y-424016D01*
X230986Y-419017D02*
Y-420017D01*
X229987D01*
X231986D01*
X230986D01*
Y-423016D01*
X231986Y-424016D01*
X235985D02*
X237984D01*
X238984Y-423016D01*
Y-421017D01*
X237984Y-420017D01*
X235985D01*
X234985Y-421017D01*
Y-423016D01*
X235985Y-424016D01*
X240983D02*
Y-420017D01*
X241983D01*
X242982Y-421017D01*
Y-424016D01*
Y-421017D01*
X243982Y-420017D01*
X244982Y-421017D01*
Y-424016D01*
X256978Y-419017D02*
X255978Y-418018D01*
X253979D01*
X252979Y-419017D01*
Y-420017D01*
X253979Y-421017D01*
X255978D01*
X256978Y-422016D01*
Y-423016D01*
X255978Y-424016D01*
X253979D01*
X252979Y-423016D01*
X259977Y-424016D02*
X261976D01*
X262976Y-423016D01*
Y-421017D01*
X261976Y-420017D01*
X259977D01*
X258977Y-421017D01*
Y-423016D01*
X259977Y-424016D01*
X264975D02*
X266975D01*
X265975D01*
Y-418018D01*
X264975D01*
X273972D02*
Y-424016D01*
X270973D01*
X269974Y-423016D01*
Y-421017D01*
X270973Y-420017D01*
X273972D01*
X278971Y-424016D02*
X276971D01*
X275972Y-423016D01*
Y-421017D01*
X276971Y-420017D01*
X278971D01*
X279971Y-421017D01*
Y-422016D01*
X275972D01*
X281970Y-420017D02*
Y-424016D01*
Y-422016D01*
X282969Y-421017D01*
X283969Y-420017D01*
X284969D01*
X293966Y-424016D02*
Y-418018D01*
X296965D01*
X297965Y-419017D01*
Y-421017D01*
X296965Y-422016D01*
X293966D01*
X295965D02*
X297965Y-424016D01*
X302963D02*
X300964D01*
X299964Y-423016D01*
Y-421017D01*
X300964Y-420017D01*
X302963D01*
X303963Y-421017D01*
Y-422016D01*
X299964D01*
X305962Y-424016D02*
X308961D01*
X309961Y-423016D01*
X308961Y-422016D01*
X306962D01*
X305962Y-421017D01*
X306962Y-420017D01*
X309961D01*
X311960Y-424016D02*
X313960D01*
X312960D01*
Y-420017D01*
X311960D01*
X316958Y-424016D02*
X319957D01*
X320957Y-423016D01*
X319957Y-422016D01*
X317958D01*
X316958Y-421017D01*
X317958Y-420017D01*
X320957D01*
X323956Y-419017D02*
Y-420017D01*
X322957D01*
X324956D01*
X323956D01*
Y-423016D01*
X324956Y-424016D01*
X0Y0D02*
X381890D01*
X0Y-316929D02*
Y0D01*
Y-316929D02*
X381890D01*
Y0D01*
X207874Y-345276D02*
Y-338583D01*
X201181Y-345276D02*
Y-338583D01*
X201181Y-345276D02*
X207874D01*
X201181Y-338583D02*
X207874D01*
X201181D02*
X207874Y-345276D01*
X201181D02*
X207874Y-338583D01*
X212992Y-344488D02*
Y-338490D01*
X215991D01*
X216991Y-339490D01*
Y-341489D01*
X215991Y-342489D01*
X212992D01*
X222989Y-339490D02*
X221989Y-338490D01*
X219990D01*
X218990Y-339490D01*
Y-343489D01*
X219990Y-344488D01*
X221989D01*
X222989Y-343489D01*
X224988Y-338490D02*
Y-344488D01*
X227987D01*
X228987Y-343489D01*
Y-342489D01*
X227987Y-341489D01*
X224988D01*
X227987D01*
X228987Y-340490D01*
Y-339490D01*
X227987Y-338490D01*
X224988D01*
X239983D02*
X237984D01*
X236984Y-339490D01*
Y-343489D01*
X237984Y-344488D01*
X239983D01*
X240983Y-343489D01*
Y-339490D01*
X239983Y-338490D01*
X242982Y-340490D02*
Y-343489D01*
X243982Y-344488D01*
X246981D01*
Y-340490D01*
X249980Y-339490D02*
Y-340490D01*
X248980D01*
X250980D01*
X249980D01*
Y-343489D01*
X250980Y-344488D01*
X253979D02*
X255978D01*
X254978D01*
Y-338490D01*
X253979D01*
X258977Y-344488D02*
X260977D01*
X259977D01*
Y-340490D01*
X258977D01*
X263976Y-344488D02*
Y-340490D01*
X266975D01*
X267974Y-341489D01*
Y-344488D01*
X272973D02*
X270973D01*
X269974Y-343489D01*
Y-341489D01*
X270973Y-340490D01*
X272973D01*
X273972Y-341489D01*
Y-342489D01*
X269974D01*
D29*
X366142Y-276614D02*
D03*
D30*
X356142D02*
D03*
Y-186614D02*
D03*
X366142D02*
D03*
X356142Y-196614D02*
D03*
X366142D02*
D03*
X356142Y-206614D02*
D03*
X366142D02*
D03*
X356142Y-216614D02*
D03*
X366142D02*
D03*
X356142Y-226614D02*
D03*
X366142D02*
D03*
X356142Y-236614D02*
D03*
X366142D02*
D03*
X356142Y-246614D02*
D03*
X366142D02*
D03*
X356142Y-256614D02*
D03*
X366142D02*
D03*
X356142Y-266614D02*
D03*
X366142D02*
D03*
Y-166614D02*
D03*
X356142D02*
D03*
X366142Y-156614D02*
D03*
X356142D02*
D03*
X366142Y-146614D02*
D03*
X356142D02*
D03*
X366142Y-136614D02*
D03*
X356142D02*
D03*
X366142Y-126614D02*
D03*
X356142D02*
D03*
X366142Y-116614D02*
D03*
X356142D02*
D03*
X366142Y-106614D02*
D03*
X356142D02*
D03*
X366142Y-96614D02*
D03*
X356142D02*
D03*
X366142Y-86614D02*
D03*
X356142D02*
D03*
Y-176614D02*
D03*
X366142D02*
D03*
X321142Y-56596D02*
D03*
Y-46596D02*
D03*
Y-36614D02*
D03*
X298642Y-36596D02*
D03*
Y-46577D02*
D03*
Y-56577D02*
D03*
X276142D02*
D03*
Y-46577D02*
D03*
Y-36596D02*
D03*
D31*
X321142Y-26614D02*
D03*
X298642Y-26596D02*
D03*
X276142D02*
D03*
D40*
X120158Y-104882D02*
D03*
X77658D02*
D03*
X227708Y-104932D02*
D03*
X185207D02*
D03*
X227692Y-25664D02*
D03*
X185192D02*
D03*
X77642Y-25614D02*
D03*
X120042D02*
D03*
X186367Y-266039D02*
D03*
X227801Y-266074D02*
D03*
X120217Y-265989D02*
D03*
X79217D02*
D03*
X120158Y-186181D02*
D03*
X78658D02*
D03*
X227708Y-186231D02*
D03*
X186707D02*
D03*
D41*
X120158Y-114882D02*
D03*
Y-124882D02*
D03*
Y-134882D02*
D03*
X77658Y-114882D02*
D03*
Y-124882D02*
D03*
Y-134882D02*
D03*
X227708Y-114932D02*
D03*
Y-124932D02*
D03*
Y-134932D02*
D03*
X185207Y-114932D02*
D03*
Y-124932D02*
D03*
Y-134932D02*
D03*
X227692Y-35664D02*
D03*
Y-45664D02*
D03*
Y-55664D02*
D03*
X185192Y-35664D02*
D03*
Y-45664D02*
D03*
Y-55664D02*
D03*
X77642Y-35614D02*
D03*
Y-45614D02*
D03*
Y-55614D02*
D03*
X120042Y-35614D02*
D03*
Y-45614D02*
D03*
Y-55614D02*
D03*
X186367Y-276039D02*
D03*
Y-286039D02*
D03*
Y-296039D02*
D03*
X227801Y-276074D02*
D03*
Y-286074D02*
D03*
Y-296074D02*
D03*
X120217Y-275989D02*
D03*
Y-285989D02*
D03*
Y-295989D02*
D03*
X79217Y-275989D02*
D03*
Y-285989D02*
D03*
Y-295989D02*
D03*
X120158Y-196181D02*
D03*
Y-206181D02*
D03*
Y-216181D02*
D03*
X78658Y-196181D02*
D03*
Y-206181D02*
D03*
Y-216181D02*
D03*
X227708Y-196231D02*
D03*
Y-206231D02*
D03*
Y-216231D02*
D03*
X186707Y-196231D02*
D03*
Y-206231D02*
D03*
Y-216231D02*
D03*
D42*
X23744Y-111651D02*
D03*
Y-131336D02*
D03*
X23869Y-189055D02*
D03*
Y-208740D02*
D03*
D43*
X364173Y-305118D02*
D03*
Y-57087D02*
D03*
X29528D02*
D03*
Y-305118D02*
D03*
M02*
