%FSLAX25Y25*%
%MOIN*%
G70*
G01*
G75*
G04 Layer_Color=32896*
%ADD10C,0.01000*%
%ADD11C,0.03150*%
G04:AMPARAMS|DCode=12|XSize=25.59mil|YSize=25.59mil|CornerRadius=3.2mil|HoleSize=0mil|Usage=FLASHONLY|Rotation=0.000|XOffset=0mil|YOffset=0mil|HoleType=Round|Shape=RoundedRectangle|*
%AMROUNDEDRECTD12*
21,1,0.02559,0.01919,0,0,0.0*
21,1,0.01919,0.02559,0,0,0.0*
1,1,0.00640,0.00960,-0.00960*
1,1,0.00640,-0.00960,-0.00960*
1,1,0.00640,-0.00960,0.00960*
1,1,0.00640,0.00960,0.00960*
%
%ADD12ROUNDEDRECTD12*%
G04:AMPARAMS|DCode=13|XSize=35.43mil|YSize=37.4mil|CornerRadius=4.43mil|HoleSize=0mil|Usage=FLASHONLY|Rotation=0.000|XOffset=0mil|YOffset=0mil|HoleType=Round|Shape=RoundedRectangle|*
%AMROUNDEDRECTD13*
21,1,0.03543,0.02854,0,0,0.0*
21,1,0.02658,0.03740,0,0,0.0*
1,1,0.00886,0.01329,-0.01427*
1,1,0.00886,-0.01329,-0.01427*
1,1,0.00886,-0.01329,0.01427*
1,1,0.00886,0.01329,0.01427*
%
%ADD13ROUNDEDRECTD13*%
G04:AMPARAMS|DCode=14|XSize=25.59mil|YSize=31.5mil|CornerRadius=1.28mil|HoleSize=0mil|Usage=FLASHONLY|Rotation=270.000|XOffset=0mil|YOffset=0mil|HoleType=Round|Shape=RoundedRectangle|*
%AMROUNDEDRECTD14*
21,1,0.02559,0.02894,0,0,270.0*
21,1,0.02303,0.03150,0,0,270.0*
1,1,0.00256,-0.01447,-0.01152*
1,1,0.00256,-0.01447,0.01152*
1,1,0.00256,0.01447,0.01152*
1,1,0.00256,0.01447,-0.01152*
%
%ADD14ROUNDEDRECTD14*%
G04:AMPARAMS|DCode=15|XSize=25.59mil|YSize=31.5mil|CornerRadius=1.28mil|HoleSize=0mil|Usage=FLASHONLY|Rotation=180.000|XOffset=0mil|YOffset=0mil|HoleType=Round|Shape=RoundedRectangle|*
%AMROUNDEDRECTD15*
21,1,0.02559,0.02894,0,0,180.0*
21,1,0.02303,0.03150,0,0,180.0*
1,1,0.00256,-0.01152,0.01447*
1,1,0.00256,0.01152,0.01447*
1,1,0.00256,0.01152,-0.01447*
1,1,0.00256,-0.01152,-0.01447*
%
%ADD15ROUNDEDRECTD15*%
G04:AMPARAMS|DCode=16|XSize=23.62mil|YSize=33.47mil|CornerRadius=2.95mil|HoleSize=0mil|Usage=FLASHONLY|Rotation=0.000|XOffset=0mil|YOffset=0mil|HoleType=Round|Shape=RoundedRectangle|*
%AMROUNDEDRECTD16*
21,1,0.02362,0.02756,0,0,0.0*
21,1,0.01772,0.03347,0,0,0.0*
1,1,0.00591,0.00886,-0.01378*
1,1,0.00591,-0.00886,-0.01378*
1,1,0.00591,-0.00886,0.01378*
1,1,0.00591,0.00886,0.01378*
%
%ADD16ROUNDEDRECTD16*%
G04:AMPARAMS|DCode=17|XSize=17.72mil|YSize=70.87mil|CornerRadius=0.89mil|HoleSize=0mil|Usage=FLASHONLY|Rotation=0.000|XOffset=0mil|YOffset=0mil|HoleType=Round|Shape=RoundedRectangle|*
%AMROUNDEDRECTD17*
21,1,0.01772,0.06909,0,0,0.0*
21,1,0.01595,0.07087,0,0,0.0*
1,1,0.00177,0.00797,-0.03455*
1,1,0.00177,-0.00797,-0.03455*
1,1,0.00177,-0.00797,0.03455*
1,1,0.00177,0.00797,0.03455*
%
%ADD17ROUNDEDRECTD17*%
G04:AMPARAMS|DCode=18|XSize=23.62mil|YSize=33.47mil|CornerRadius=2.95mil|HoleSize=0mil|Usage=FLASHONLY|Rotation=90.000|XOffset=0mil|YOffset=0mil|HoleType=Round|Shape=RoundedRectangle|*
%AMROUNDEDRECTD18*
21,1,0.02362,0.02756,0,0,90.0*
21,1,0.01772,0.03347,0,0,90.0*
1,1,0.00591,0.01378,0.00886*
1,1,0.00591,0.01378,-0.00886*
1,1,0.00591,-0.01378,-0.00886*
1,1,0.00591,-0.01378,0.00886*
%
%ADD18ROUNDEDRECTD18*%
%ADD19R,0.01772X0.07087*%
G04:AMPARAMS|DCode=20|XSize=25.59mil|YSize=25.59mil|CornerRadius=3.2mil|HoleSize=0mil|Usage=FLASHONLY|Rotation=90.000|XOffset=0mil|YOffset=0mil|HoleType=Round|Shape=RoundedRectangle|*
%AMROUNDEDRECTD20*
21,1,0.02559,0.01919,0,0,90.0*
21,1,0.01919,0.02559,0,0,90.0*
1,1,0.00640,0.00960,0.00960*
1,1,0.00640,0.00960,-0.00960*
1,1,0.00640,-0.00960,-0.00960*
1,1,0.00640,-0.00960,0.00960*
%
%ADD20ROUNDEDRECTD20*%
G04:AMPARAMS|DCode=21|XSize=35.43mil|YSize=37.4mil|CornerRadius=4.43mil|HoleSize=0mil|Usage=FLASHONLY|Rotation=90.000|XOffset=0mil|YOffset=0mil|HoleType=Round|Shape=RoundedRectangle|*
%AMROUNDEDRECTD21*
21,1,0.03543,0.02854,0,0,90.0*
21,1,0.02658,0.03740,0,0,90.0*
1,1,0.00886,0.01427,0.01329*
1,1,0.00886,0.01427,-0.01329*
1,1,0.00886,-0.01427,-0.01329*
1,1,0.00886,-0.01427,0.01329*
%
%ADD21ROUNDEDRECTD21*%
%ADD22C,0.05906*%
%ADD23C,0.04000*%
%ADD24R,0.11811X0.07874*%
%ADD25R,0.01969X0.01969*%
%ADD26R,0.12598X0.32283*%
%ADD27R,0.06000X0.06000*%
%ADD28C,0.06000*%
%ADD29R,0.06496X0.06496*%
%ADD30C,0.06496*%
%ADD31R,0.06496X0.06496*%
%ADD32C,0.10236*%
%ADD33C,0.19685*%
%ADD34C,0.03000*%
%ADD35C,0.01969*%
%ADD36R,0.14173X0.33858*%
%ADD37C,0.00787*%
%ADD38C,0.00800*%
%ADD39C,0.00591*%
%ADD40R,0.06800X0.06800*%
%ADD41C,0.06800*%
%ADD42C,0.11036*%
%ADD43C,0.20485*%
%ADD44C,0.00051*%
G36*
X326092Y-21506D02*
X326100Y-21527D01*
X326098Y-61705D01*
X326100D01*
X326092Y-61726D01*
X326071Y-61734D01*
X321155Y-61732D01*
X321150Y-61734D01*
X321145Y-61732D01*
X316229Y-61734D01*
X316208Y-61726D01*
X316200Y-61705D01*
X316202D01*
X316200Y-21527D01*
X316208Y-21506D01*
X316229Y-21497D01*
Y-21500D01*
X321150Y-21497D01*
X326071Y-21500D01*
Y-21497D01*
X326092Y-21506D01*
D02*
G37*
G36*
X281092Y-21487D02*
X281101Y-21508D01*
X281098Y-61686D01*
X281101D01*
X281092Y-61707D01*
X281071Y-61716D01*
X276155Y-61714D01*
X276150Y-61716D01*
X276145Y-61714D01*
X271229Y-61716D01*
X271208Y-61707D01*
X271200Y-61686D01*
X271202D01*
X271200Y-21508D01*
X271208Y-21487D01*
X271229Y-21479D01*
Y-21481D01*
X276150Y-21479D01*
X281071Y-21481D01*
Y-21479D01*
X281092Y-21487D01*
D02*
G37*
G36*
X303592D02*
X303601Y-21508D01*
X303598Y-61686D01*
X303601D01*
X303592Y-61707D01*
X303571Y-61716D01*
X298655Y-61714D01*
X298650Y-61716D01*
X298645Y-61714D01*
X293729Y-61716D01*
X293708Y-61707D01*
X293700Y-61686D01*
X293702D01*
X293700Y-21508D01*
X293708Y-21487D01*
X293729Y-21479D01*
Y-21481D01*
X298650Y-21479D01*
X303571Y-21481D01*
Y-21479D01*
X303592Y-21487D01*
D02*
G37*
%LPC*%
G36*
X298650Y-52725D02*
X298650Y-52725D01*
X298650Y-52725D01*
X298650D01*
D02*
G37*
G36*
X276150D02*
X276150Y-52725D01*
X276150Y-52725D01*
X276150D01*
D02*
G37*
G36*
X321150Y-52744D02*
X321150Y-52744D01*
X321150Y-52744D01*
X321150D01*
D02*
G37*
G36*
X298679Y-42727D02*
Y-42729D01*
X298671Y-42750D01*
X298650Y-42759D01*
X298629Y-42750D01*
X298621Y-42729D01*
Y-42727D01*
X297653Y-42855D01*
X296723Y-43240D01*
X295925Y-43852D01*
X295312Y-44651D01*
X294927Y-45580D01*
X294796Y-46578D01*
X294927Y-47575D01*
X295312Y-48505D01*
X295925Y-49303D01*
X296723Y-49916D01*
X297653Y-50301D01*
X298623Y-50428D01*
Y-50426D01*
X298621D01*
X298629Y-50405D01*
X298650Y-50397D01*
X298671Y-50405D01*
X298679Y-50426D01*
X298677D01*
Y-50428D01*
X299648Y-50301D01*
X300577Y-49916D01*
X301375Y-49303D01*
X301988Y-48505D01*
X302373Y-47575D01*
X302504Y-46578D01*
X302373Y-45580D01*
X301988Y-44651D01*
X301375Y-43852D01*
X300577Y-43240D01*
X299648Y-42855D01*
X298679Y-42727D01*
D02*
G37*
G36*
X276179D02*
Y-42729D01*
X276171Y-42750D01*
X276150Y-42759D01*
X276129Y-42750D01*
X276121Y-42729D01*
Y-42727D01*
X275152Y-42855D01*
X274223Y-43240D01*
X273425Y-43852D01*
X272812Y-44651D01*
X272427Y-45580D01*
X272296Y-46578D01*
X272427Y-47575D01*
X272812Y-48505D01*
X273425Y-49303D01*
X274223Y-49916D01*
X275152Y-50301D01*
X276123Y-50428D01*
Y-50426D01*
X276121D01*
X276129Y-50405D01*
X276150Y-50397D01*
X276171Y-50405D01*
X276179Y-50426D01*
X276177D01*
Y-50428D01*
X277148Y-50301D01*
X278077Y-49916D01*
X278875Y-49303D01*
X279488Y-48505D01*
X279873Y-47575D01*
X280004Y-46578D01*
X279873Y-45580D01*
X279488Y-44651D01*
X278875Y-43852D01*
X278077Y-43240D01*
X277148Y-42855D01*
X276179Y-42727D01*
D02*
G37*
G36*
X321179Y-42746D02*
Y-42748D01*
X321171Y-42769D01*
X321150Y-42777D01*
X321129Y-42769D01*
X321121Y-42748D01*
Y-42746D01*
X320152Y-42873D01*
X319223Y-43258D01*
X318425Y-43871D01*
X317812Y-44669D01*
X317427Y-45599D01*
X317296Y-46596D01*
X317427Y-47594D01*
X317812Y-48523D01*
X318425Y-49322D01*
X319223Y-49934D01*
X320152Y-50319D01*
X321123Y-50447D01*
Y-50445D01*
X321121D01*
X321129Y-50424D01*
X321150Y-50415D01*
X321171Y-50424D01*
X321179Y-50445D01*
X321177D01*
Y-50447D01*
X322148Y-50319D01*
X323077Y-49934D01*
X323875Y-49322D01*
X324488Y-48523D01*
X324873Y-47594D01*
X325004Y-46596D01*
X324873Y-45599D01*
X324488Y-44669D01*
X323875Y-43871D01*
X323077Y-43258D01*
X322148Y-42873D01*
X321179Y-42746D01*
D02*
G37*
G36*
X276150Y-60431D02*
X276150D01*
D01*
X276150D01*
D02*
G37*
G36*
X298650D02*
X298650D01*
D01*
X298650D01*
D02*
G37*
G36*
X321150Y-60450D02*
X321150D01*
D01*
X321150D01*
D02*
G37*
G36*
X298678Y-52727D02*
X298680Y-52730D01*
X298671Y-52751D01*
X298671Y-52751D01*
X298650Y-52759D01*
Y-52757D01*
X298650Y-52737D01*
X298650Y-52757D01*
Y-52759D01*
X298629Y-52751D01*
X298629Y-52751D01*
X298621Y-52730D01*
X298622Y-52727D01*
X297644Y-52855D01*
X296715Y-53241D01*
X295916Y-53853D01*
X295304Y-54651D01*
X294919Y-55581D01*
X294788Y-56578D01*
X294919Y-57576D01*
X295304Y-58505D01*
X295916Y-59304D01*
X296715Y-59916D01*
X297644Y-60301D01*
X298623Y-60430D01*
X298623Y-60427D01*
X298621D01*
X298629Y-60406D01*
X298649Y-60398D01*
D01*
X298650Y-60397D01*
X298651Y-60398D01*
D01*
X298671Y-60406D01*
X298679Y-60427D01*
X298677D01*
X298677Y-60430D01*
X299656Y-60301D01*
X300586Y-59916D01*
X301384Y-59304D01*
X301996Y-58505D01*
X302381Y-57576D01*
X302513Y-56578D01*
X302381Y-55581D01*
X301996Y-54651D01*
X301384Y-53853D01*
X300586Y-53241D01*
X299656Y-52855D01*
X298678Y-52727D01*
D02*
G37*
G36*
X276178D02*
X276180Y-52730D01*
X276171Y-52751D01*
X276171Y-52751D01*
X276150Y-52759D01*
Y-52757D01*
X276150Y-52737D01*
X276150Y-52757D01*
Y-52759D01*
X276129Y-52751D01*
X276129Y-52751D01*
X276120Y-52730D01*
X276122Y-52727D01*
X275144Y-52855D01*
X274215Y-53241D01*
X273416Y-53853D01*
X272804Y-54651D01*
X272419Y-55581D01*
X272288Y-56578D01*
X272419Y-57576D01*
X272804Y-58505D01*
X273416Y-59304D01*
X274215Y-59916D01*
X275144Y-60301D01*
X276123Y-60430D01*
X276123Y-60427D01*
X276121D01*
X276129Y-60406D01*
X276149Y-60398D01*
D01*
X276150Y-60397D01*
X276151Y-60398D01*
D01*
X276171Y-60406D01*
X276179Y-60427D01*
X276177D01*
X276177Y-60430D01*
X277156Y-60301D01*
X278085Y-59916D01*
X278884Y-59304D01*
X279496Y-58505D01*
X279881Y-57576D01*
X280013Y-56578D01*
X279881Y-55581D01*
X279496Y-54651D01*
X278884Y-53853D01*
X278085Y-53241D01*
X277156Y-52855D01*
X276178Y-52727D01*
D02*
G37*
G36*
X321178Y-52745D02*
X321180Y-52749D01*
X321171Y-52769D01*
X321171Y-52769D01*
X321150Y-52778D01*
Y-52776D01*
X321150Y-52756D01*
X321150Y-52776D01*
Y-52778D01*
X321129Y-52769D01*
X321129Y-52769D01*
X321121Y-52749D01*
X321122Y-52745D01*
X320144Y-52874D01*
X319215Y-53259D01*
X318416Y-53872D01*
X317804Y-54670D01*
X317419Y-55599D01*
X317287Y-56597D01*
X317419Y-57594D01*
X317804Y-58524D01*
X318416Y-59322D01*
X319215Y-59935D01*
X320144Y-60320D01*
X321123Y-60449D01*
X321123Y-60445D01*
X321121D01*
X321129Y-60425D01*
X321149Y-60416D01*
D01*
X321150Y-60416D01*
X321151Y-60416D01*
D01*
X321171Y-60425D01*
X321179Y-60445D01*
X321177D01*
X321177Y-60449D01*
X322156Y-60320D01*
X323085Y-59935D01*
X323884Y-59322D01*
X324496Y-58524D01*
X324881Y-57594D01*
X325013Y-56597D01*
X324881Y-55599D01*
X324496Y-54670D01*
X323884Y-53872D01*
X323085Y-53259D01*
X322156Y-52874D01*
X321178Y-52745D01*
D02*
G37*
G36*
X298679Y-32745D02*
Y-32747D01*
X298679Y-32748D01*
X298671Y-32769D01*
X298669Y-32768D01*
X298669Y-32768D01*
X298671Y-32769D01*
X298651Y-32778D01*
Y-32778D01*
X298650Y-32778D01*
X298650Y-32778D01*
Y-32778D01*
X298649Y-32778D01*
D01*
X298629Y-32769D01*
X298631Y-32768D01*
X298629Y-32769D01*
X298621Y-32748D01*
X298621Y-32747D01*
Y-32745D01*
X297644Y-32874D01*
X296715Y-33259D01*
X295916Y-33871D01*
X295304Y-34670D01*
X294919Y-35599D01*
X294788Y-36597D01*
X294919Y-37594D01*
X295304Y-38524D01*
X295916Y-39322D01*
X296715Y-39935D01*
X297644Y-40320D01*
X298623Y-40449D01*
Y-40445D01*
X298621D01*
X298629Y-40424D01*
X298649Y-40416D01*
D01*
X298650Y-40416D01*
X298651Y-40416D01*
D01*
X298671Y-40424D01*
X298679Y-40445D01*
X298677D01*
Y-40449D01*
X299656Y-40320D01*
X300586Y-39935D01*
X301384Y-39322D01*
X301996Y-38524D01*
X302381Y-37594D01*
X302513Y-36597D01*
X302381Y-35599D01*
X301996Y-34670D01*
X301384Y-33871D01*
X300586Y-33259D01*
X299656Y-32874D01*
X298679Y-32745D01*
D02*
G37*
G36*
X276179D02*
Y-32747D01*
X276179Y-32748D01*
X276171Y-32769D01*
X276169Y-32768D01*
X276169Y-32768D01*
X276171Y-32769D01*
X276151Y-32778D01*
Y-32778D01*
X276150Y-32778D01*
X276150Y-32778D01*
Y-32778D01*
X276149Y-32778D01*
D01*
X276129Y-32769D01*
X276131Y-32768D01*
X276129Y-32769D01*
X276121Y-32748D01*
X276121Y-32747D01*
Y-32745D01*
X275144Y-32874D01*
X274215Y-33259D01*
X273416Y-33871D01*
X272804Y-34670D01*
X272419Y-35599D01*
X272288Y-36597D01*
X272419Y-37594D01*
X272804Y-38524D01*
X273416Y-39322D01*
X274215Y-39935D01*
X275144Y-40320D01*
X276123Y-40449D01*
Y-40445D01*
X276121D01*
X276129Y-40424D01*
X276149Y-40416D01*
D01*
X276150Y-40416D01*
X276151Y-40416D01*
D01*
X276171Y-40424D01*
X276179Y-40445D01*
X276177D01*
Y-40449D01*
X277156Y-40320D01*
X278085Y-39935D01*
X278884Y-39322D01*
X279496Y-38524D01*
X279881Y-37594D01*
X280013Y-36597D01*
X279881Y-35599D01*
X279496Y-34670D01*
X278884Y-33871D01*
X278085Y-33259D01*
X277156Y-32874D01*
X276179Y-32745D01*
D02*
G37*
G36*
X276150Y-32776D02*
Y-32776D01*
D01*
Y-32776D01*
D02*
G37*
G36*
X302481Y-22795D02*
X298655D01*
X298650Y-22797D01*
X298645Y-22795D01*
X294819D01*
Y-30418D01*
X298650Y-30416D01*
X302481Y-30418D01*
Y-22795D01*
D02*
G37*
G36*
X279981D02*
X276155D01*
X276150Y-22797D01*
X276145Y-22795D01*
X272319D01*
Y-30418D01*
X276150Y-30416D01*
X279981Y-30418D01*
Y-22795D01*
D02*
G37*
G36*
X324981Y-22814D02*
X321155D01*
X321150Y-22816D01*
X321145Y-22814D01*
X317319D01*
Y-30437D01*
X321150Y-30435D01*
X324981Y-30437D01*
Y-22814D01*
D02*
G37*
G36*
X276150Y-40450D02*
X276150D01*
D01*
X276150D01*
D02*
G37*
G36*
X298650D02*
X298650D01*
D01*
X298650D01*
D02*
G37*
G36*
X321150Y-40469D02*
X321150D01*
D01*
X321150D01*
D02*
G37*
G36*
X298650Y-32776D02*
Y-32776D01*
D01*
Y-32776D01*
D02*
G37*
G36*
X321179Y-32764D02*
Y-32765D01*
X321179Y-32767D01*
X321171Y-32788D01*
X321169Y-32786D01*
X321169Y-32786D01*
X321171Y-32788D01*
X321151Y-32796D01*
Y-32796D01*
X321150Y-32796D01*
X321150Y-32796D01*
Y-32796D01*
X321149Y-32796D01*
D01*
X321129Y-32788D01*
X321131Y-32786D01*
X321129Y-32788D01*
X321121Y-32767D01*
X321121Y-32765D01*
Y-32764D01*
X320144Y-32893D01*
X319215Y-33278D01*
X318416Y-33890D01*
X317804Y-34688D01*
X317419Y-35618D01*
X317287Y-36615D01*
X317419Y-37613D01*
X317804Y-38543D01*
X318416Y-39341D01*
X319215Y-39953D01*
X320144Y-40338D01*
X321123Y-40467D01*
Y-40464D01*
X321121D01*
X321129Y-40443D01*
X321149Y-40435D01*
D01*
X321150Y-40435D01*
X321151Y-40435D01*
D01*
X321171Y-40443D01*
X321179Y-40464D01*
X321177D01*
Y-40467D01*
X322156Y-40338D01*
X323085Y-39953D01*
X323884Y-39341D01*
X324496Y-38543D01*
X324881Y-37613D01*
X325013Y-36615D01*
X324881Y-35618D01*
X324496Y-34688D01*
X323884Y-33890D01*
X323085Y-33278D01*
X322156Y-32893D01*
X321179Y-32764D01*
D02*
G37*
G36*
X321150Y-32794D02*
Y-32794D01*
D01*
Y-32794D01*
D02*
G37*
%LPD*%
D10*
X264173Y-297620D02*
Y-142108D01*
X297638D01*
Y-297638D02*
Y-142108D01*
X264191Y-297638D02*
X297638D01*
X207874Y-436614D02*
Y-429921D01*
X201181Y-436614D02*
Y-429921D01*
X201181Y-436614D02*
X207874D01*
X201181Y-429921D02*
X207874D01*
X201181D02*
X207874Y-436614D01*
X201181D02*
X207874Y-429921D01*
X294243Y-293950D02*
X288245D01*
Y-289951D01*
X294243Y-283953D02*
Y-287951D01*
X288245D01*
Y-283953D01*
X291244Y-287951D02*
Y-285952D01*
X294243Y-281954D02*
X288245D01*
Y-278954D01*
X289245Y-277955D01*
X293244D01*
X294243Y-278954D01*
Y-281954D01*
Y-269957D02*
Y-267958D01*
Y-268958D01*
X288245D01*
Y-269957D01*
Y-267958D01*
Y-264959D02*
X294243D01*
X288245Y-260960D01*
X294243D01*
Y-258961D02*
Y-254962D01*
Y-256962D01*
X288245D01*
X294243Y-248964D02*
Y-252963D01*
X288245D01*
Y-248964D01*
X291244Y-252963D02*
Y-250963D01*
X288245Y-246965D02*
X294243D01*
Y-243966D01*
X293244Y-242966D01*
X291244D01*
X290245Y-243966D01*
Y-246965D01*
Y-244966D02*
X288245Y-242966D01*
X294243Y-236968D02*
Y-240967D01*
X291244D01*
Y-238967D01*
Y-240967D01*
X288245D01*
Y-234969D02*
X292244D01*
X294243Y-232969D01*
X292244Y-230970D01*
X288245D01*
X291244D01*
Y-234969D01*
X293244Y-224972D02*
X294243Y-225972D01*
Y-227971D01*
X293244Y-228971D01*
X289245D01*
X288245Y-227971D01*
Y-225972D01*
X289245Y-224972D01*
X294243Y-218974D02*
Y-222973D01*
X288245D01*
Y-218974D01*
X291244Y-222973D02*
Y-220973D01*
X288245Y-210976D02*
X294243D01*
Y-207977D01*
X293244Y-206978D01*
X291244D01*
X290245Y-207977D01*
Y-210976D01*
X293244Y-200980D02*
X294243Y-201979D01*
Y-203979D01*
X293244Y-204978D01*
X289245D01*
X288245Y-203979D01*
Y-201979D01*
X289245Y-200980D01*
X294243Y-198980D02*
X288245D01*
Y-195981D01*
X289245Y-194982D01*
X290245D01*
X291244Y-195981D01*
Y-198980D01*
Y-195981D01*
X292244Y-194982D01*
X293244D01*
X294243Y-195981D01*
Y-198980D01*
X283220Y-293950D02*
X277222D01*
Y-290951D01*
X278221Y-289951D01*
X282220D01*
X283220Y-290951D01*
Y-293950D01*
Y-287951D02*
X277222D01*
Y-283953D01*
X282220Y-277955D02*
X283220Y-278954D01*
Y-280954D01*
X282220Y-281954D01*
X278221D01*
X277222Y-280954D01*
Y-278954D01*
X278221Y-277955D01*
X280221D01*
Y-279954D01*
X277222Y-271957D02*
Y-275955D01*
X281220Y-271957D01*
X282220D01*
X283220Y-272956D01*
Y-274956D01*
X282220Y-275955D01*
Y-269957D02*
X283220Y-268958D01*
Y-266958D01*
X282220Y-265959D01*
X278221D01*
X277222Y-266958D01*
Y-268958D01*
X278221Y-269957D01*
X282220D01*
X277222Y-263959D02*
Y-261960D01*
Y-262960D01*
X283220D01*
X282220Y-263959D01*
X283220Y-258961D02*
Y-254962D01*
X282220D01*
X278221Y-258961D01*
X277222D01*
X282220Y-252963D02*
X283220Y-251963D01*
Y-249964D01*
X282220Y-248964D01*
X278221D01*
X277222Y-249964D01*
Y-251963D01*
X278221Y-252963D01*
X282220D01*
X277222Y-242966D02*
Y-246965D01*
X281220Y-242966D01*
X282220D01*
X283220Y-243966D01*
Y-245965D01*
X282220Y-246965D01*
X277222Y-240967D02*
Y-238967D01*
Y-239967D01*
X283220D01*
X282220Y-240967D01*
X277222Y-232969D02*
X283220D01*
X280221Y-235968D01*
Y-231970D01*
X212992Y-429435D02*
Y-435433D01*
X215991D01*
X216991Y-434433D01*
Y-433434D01*
X215991Y-432434D01*
X212992D01*
X215991D01*
X216991Y-431434D01*
Y-430435D01*
X215991Y-429435D01*
X212992D01*
X219990Y-435433D02*
X221989D01*
X222989Y-434433D01*
Y-432434D01*
X221989Y-431434D01*
X219990D01*
X218990Y-432434D01*
Y-434433D01*
X219990Y-435433D01*
X225988Y-430435D02*
Y-431434D01*
X224988D01*
X226988D01*
X225988D01*
Y-434433D01*
X226988Y-435433D01*
X230986Y-430435D02*
Y-431434D01*
X229987D01*
X231986D01*
X230986D01*
Y-434433D01*
X231986Y-435433D01*
X235985D02*
X237984D01*
X238984Y-434433D01*
Y-432434D01*
X237984Y-431434D01*
X235985D01*
X234985Y-432434D01*
Y-434433D01*
X235985Y-435433D01*
X240983D02*
Y-431434D01*
X241983D01*
X242982Y-432434D01*
Y-435433D01*
Y-432434D01*
X243982Y-431434D01*
X244982Y-432434D01*
Y-435433D01*
X256978Y-430435D02*
X255978Y-429435D01*
X253979D01*
X252979Y-430435D01*
Y-431434D01*
X253979Y-432434D01*
X255978D01*
X256978Y-433434D01*
Y-434433D01*
X255978Y-435433D01*
X253979D01*
X252979Y-434433D01*
X258977Y-435433D02*
X260977D01*
X259977D01*
Y-431434D01*
X258977D01*
X263976Y-435433D02*
X265975D01*
X264975D01*
Y-429435D01*
X263976D01*
X268974Y-435433D02*
Y-429435D01*
Y-433434D02*
X271973Y-431434D01*
X268974Y-433434D02*
X271973Y-435433D01*
X284969Y-430435D02*
X283969Y-429435D01*
X281970D01*
X280970Y-430435D01*
Y-431434D01*
X281970Y-432434D01*
X283969D01*
X284969Y-433434D01*
Y-434433D01*
X283969Y-435433D01*
X281970D01*
X280970Y-434433D01*
X290967Y-431434D02*
X287968D01*
X286968Y-432434D01*
Y-434433D01*
X287968Y-435433D01*
X290967D01*
X292966Y-431434D02*
Y-435433D01*
Y-433434D01*
X293966Y-432434D01*
X294966Y-431434D01*
X295965D01*
X301963Y-435433D02*
X299964D01*
X298964Y-434433D01*
Y-432434D01*
X299964Y-431434D01*
X301963D01*
X302963Y-432434D01*
Y-433434D01*
X298964D01*
X307961Y-435433D02*
X305962D01*
X304962Y-434433D01*
Y-432434D01*
X305962Y-431434D01*
X307961D01*
X308961Y-432434D01*
Y-433434D01*
X304962D01*
X310960Y-435433D02*
Y-431434D01*
X313960D01*
X314959Y-432434D01*
Y-435433D01*
X0Y0D02*
X381890D01*
X0Y-316929D02*
Y0D01*
Y-316929D02*
X381890D01*
Y0D01*
X207874Y-345276D02*
Y-338583D01*
X201181Y-345276D02*
Y-338583D01*
X201181Y-345276D02*
X207874D01*
X201181Y-338583D02*
X207874D01*
X201181D02*
X207874Y-345276D01*
X201181D02*
X207874Y-338583D01*
X212992Y-344488D02*
Y-338490D01*
X215991D01*
X216991Y-339490D01*
Y-341489D01*
X215991Y-342489D01*
X212992D01*
X222989Y-339490D02*
X221989Y-338490D01*
X219990D01*
X218990Y-339490D01*
Y-343489D01*
X219990Y-344488D01*
X221989D01*
X222989Y-343489D01*
X224988Y-338490D02*
Y-344488D01*
X227987D01*
X228987Y-343489D01*
Y-342489D01*
X227987Y-341489D01*
X224988D01*
X227987D01*
X228987Y-340490D01*
Y-339490D01*
X227987Y-338490D01*
X224988D01*
X239983D02*
X237984D01*
X236984Y-339490D01*
Y-343489D01*
X237984Y-344488D01*
X239983D01*
X240983Y-343489D01*
Y-339490D01*
X239983Y-338490D01*
X242982Y-340490D02*
Y-343489D01*
X243982Y-344488D01*
X246981D01*
Y-340490D01*
X249980Y-339490D02*
Y-340490D01*
X248980D01*
X250980D01*
X249980D01*
Y-343489D01*
X250980Y-344488D01*
X253979D02*
X255978D01*
X254978D01*
Y-338490D01*
X253979D01*
X258977Y-344488D02*
X260977D01*
X259977D01*
Y-340490D01*
X258977D01*
X263976Y-344488D02*
Y-340490D01*
X266975D01*
X267974Y-341489D01*
Y-344488D01*
X272973D02*
X270973D01*
X269974Y-343489D01*
Y-341489D01*
X270973Y-340490D01*
X272973D01*
X273972Y-341489D01*
Y-342489D01*
X269974D01*
D44*
X321150Y-32767D02*
G03*
X321150Y-40464I-8J-3848D01*
G01*
Y-42748D02*
G03*
X321150Y-50445I0J-3848D01*
G01*
X321150Y-52749D02*
G03*
X321150Y-60445I-8J-3848D01*
G01*
D02*
G03*
X321150Y-52749I8J3848D01*
G01*
X321150Y-50445D02*
G03*
X321150Y-42748I0J3848D01*
G01*
Y-40464D02*
G03*
X321150Y-32767I8J3848D01*
G01*
X298650Y-40445D02*
G03*
X298650Y-32748I8J3848D01*
G01*
X298650Y-50426D02*
G03*
X298650Y-42729I0J3848D01*
G01*
Y-60427D02*
G03*
X298650Y-52730I8J3848D01*
G01*
X298650D02*
G03*
X298650Y-60427I-8J-3848D01*
G01*
Y-42729D02*
G03*
X298650Y-50426I0J-3848D01*
G01*
X298650Y-32748D02*
G03*
X298650Y-40445I-8J-3848D01*
G01*
X276150Y-32748D02*
G03*
X276150Y-40445I-8J-3848D01*
G01*
Y-42729D02*
G03*
X276150Y-50426I0J-3848D01*
G01*
X276150Y-52730D02*
G03*
X276150Y-60427I-8J-3848D01*
G01*
D02*
G03*
X276150Y-52730I8J3848D01*
G01*
X276150Y-50426D02*
G03*
X276150Y-42729I0J3848D01*
G01*
Y-40445D02*
G03*
X276150Y-32748I8J3848D01*
G01*
X317292Y-30464D02*
X321150D01*
X317292D02*
Y-22787D01*
X321150D01*
X316229Y-61705D02*
Y-21527D01*
X321150D01*
Y-22787D02*
Y-21527D01*
Y-32767D02*
Y-30464D01*
Y-32767D02*
X321150Y-32767D01*
X321150Y-42511D02*
Y-40464D01*
Y-42748D02*
Y-42511D01*
Y-52748D02*
Y-50445D01*
Y-52748D02*
X321150Y-52749D01*
X321150Y-61705D02*
Y-60445D01*
X316229Y-61705D02*
X321150D01*
X326071D01*
X321150D02*
Y-60445D01*
X321150Y-52749D02*
X321150Y-52748D01*
Y-50445D01*
Y-42748D02*
Y-42511D01*
Y-40464D01*
X321150Y-32767D02*
X321150Y-32767D01*
Y-30464D01*
Y-22787D02*
Y-21527D01*
X326071D01*
Y-61705D02*
Y-21527D01*
X321150Y-22787D02*
X325008D01*
Y-30464D02*
Y-22787D01*
X321150Y-30464D02*
X325008D01*
X298650Y-30445D02*
X302508D01*
Y-22768D01*
X298650D02*
X302508D01*
X303571Y-61686D02*
Y-21508D01*
X298650D02*
X303571D01*
X298650Y-22768D02*
Y-21508D01*
Y-32748D02*
Y-30445D01*
X298650Y-32748D02*
X298650Y-32748D01*
Y-42492D02*
Y-40445D01*
Y-42729D02*
Y-42492D01*
Y-52730D02*
Y-50426D01*
X298650Y-52730D02*
X298650Y-52730D01*
Y-61686D02*
Y-60427D01*
Y-61686D02*
X303571D01*
X293729D02*
X298650D01*
Y-60427D01*
Y-52730D02*
X298650Y-52730D01*
X298650Y-52730D02*
Y-50426D01*
Y-42729D02*
Y-42492D01*
Y-40445D01*
Y-32748D02*
X298650Y-32748D01*
X298650Y-32748D02*
Y-30445D01*
Y-22768D02*
Y-21508D01*
X293729D02*
X298650D01*
X293729Y-61686D02*
Y-21508D01*
X294792Y-22768D02*
X298650D01*
X294792Y-30445D02*
Y-22768D01*
Y-30445D02*
X298650D01*
X272292D02*
X276150D01*
X272292D02*
Y-22768D01*
X276150D01*
X271229Y-61686D02*
Y-21508D01*
X276150D01*
Y-22768D02*
Y-21508D01*
Y-32748D02*
Y-30445D01*
Y-32748D02*
X276150Y-32748D01*
X276150Y-42492D02*
Y-40445D01*
Y-42729D02*
Y-42492D01*
Y-52730D02*
Y-50426D01*
Y-52730D02*
X276150Y-52730D01*
X276150Y-61686D02*
Y-60427D01*
X271229Y-61686D02*
X276150D01*
X281071D01*
X276150D02*
Y-60427D01*
X276150Y-52730D02*
X276150Y-52730D01*
Y-50426D01*
Y-42729D02*
Y-42492D01*
Y-40445D01*
X276150Y-32748D02*
X276150Y-32748D01*
Y-30445D01*
Y-22768D02*
Y-21508D01*
X281071D01*
Y-61686D02*
Y-21508D01*
X276150Y-22768D02*
X280008D01*
Y-30445D02*
Y-22768D01*
X276150Y-30445D02*
X280008D01*
M02*
