M48
;Layer_Color=9474304
;FILE_FORMAT=4:4
METRIC,LZ
;TYPE=PLATED
T1F00S00C0.3810
T2F00S00C0.7620
T3F00S00C1.0000
T4F00S00C1.3000
T5F00S00C3.0000
%
T01
X00015Y-0079
X0012Y-0079
X0017
X0022
X0027
X0032
X0037
X0042
X0047
X0052
X0057
X0062
X0067
X0072
X0077
X00763Y-00742
X0085126Y-0075086
Y-0076086
X0087Y-0079
X0082
X008842Y-007404
X0087539Y-0073308
X008706Y-007026
X008796Y-006916
X00844708Y-00695032
X00831708
X008253Y-0072415
X008383Y-0073431
X00831708Y-00654472
X008383Y-0062644
X00849197Y-00624401
X008482Y-006054
X0083843Y-0058204
X008253Y-0059207
Y-0061755
X00862852Y-00574998
X00861852Y-00555998
X008182Y-005444
X008188Y-0051417
X008283Y-0047617
X008383Y-0048293
X00849197Y-00482401
X00851352Y-00465696
X00862852
X008632Y-004984
X008353Y-0045317
X00835098Y-00441186
X008188Y-0044843
X0082586Y-0040796
X008223Y-0039717
X008482Y-004084
X00918Y-00435
X00955Y-00515
Y-00585
Y-00635
Y-00685
Y-00735
X00917686Y-00726852
X008123Y-0073431
X007993Y-0072415
X007928Y-00694124
X00777Y-00685
X00811Y-00675
X0079803Y-0065565
X00792708Y-00625262
X008123Y-0062517
X0081Y-005925
X008123Y-0058191
X0079919Y-0058957
X00805Y-005275
X008123Y-0048293
X0079661Y-0047912
X007858Y-0048343
X007825Y-004975
X0072Y-0052
X007402Y-005514
X007282Y-005694
X007162Y-005794
X007022Y-005944
X006902Y-006054
X006782Y-006174
X0062Y-006175
X00598615Y-00626828
Y-00636828
X00588615
Y-00626828
X00578615
X00552116Y-00636828
X00499871Y-0063674
X00473372Y-0062674
X00463372
X00453372
Y-0063674
X00463372
X0042Y-0065
Y-00685
X004575Y-0069
X00517553Y-00674763
X00525626Y-0068162
X00509371Y-00715539
X00541881
X00525883Y-00734707
X0062Y-00735
Y-00685
X0067Y-00685
Y-00735
X0072
X007332Y-006714
X007442Y-006594
X007542Y-006464
X0077609Y-006414
X006825Y-005525
X006225
Y-0049
X00665Y-004925
X006775Y-0048
X007175Y-004375
X00675Y-004
X006275Y-004275
X00598377Y-00424027
X00598377Y-00433527
X00588377
Y-00424027
X00578377
X00552877Y-00434027
X00553877Y-00451027
X005542Y-004844
X00526492Y-00477107
X00519426Y-00470366
X00501732Y-00483671
X00510237Y-00512827
X00543272Y-00512667
X00526732Y-00533671
X00514977Y-0056286
X00419977Y-0056036
Y-0053536
Y-0048536
X00459977Y-0048786
X004625Y-004475
X00464237Y-00434027
X00454237
Y-00424027
X00464237
X00474237
X00499737Y-00434027
X00495737Y-00448027
X00509977Y-0044536
X00511236Y-00341789
X0053689
X00735Y-0035
X00791506Y-0037499
X007993Y-0040792
X00815197Y-00406401
X0042Y-00735
X0037
Y-00685
Y-0065
X0032
X00315226Y-00636242
X00325227
Y-00626242
X00315226
X00305226
X00279Y-00636
X002775Y-006825
X00252808Y-00681413
X00244657Y-00673921
X002225Y-006825
X00237211Y-00715413
X00268451
X00252808Y-00737316
X0017Y-00735
X0012
Y-00685
Y-00635
X00157Y-00638
X00181588Y-00636242
X00191588
Y-00626242
X00181588
X00201588
X00228088Y-00636242
X0017Y-00685
X0007
Y-00635
Y-00585
X00112Y-00593
X001875Y-004875
X0018979Y-004339
X0017979
Y-004239
X0018979
X0019979
X0022629Y-004339
X002787Y-004329
X003052Y-0042315
X003152
Y-004329
X003252
Y-0042315
X0032Y-004475
Y-004875
X00369977Y-0048536
X00359977Y-0044836
X00409977
X00369977Y-0053536
Y-0056036
X00252372Y-0053214
X002682Y-005107
X0023579
X0024241Y-00475366
X0025268Y-0047756
X00275977Y-0047336
X00265124Y-00342016
X00237124
X0009Y-00395
X0007Y-00435
X003225Y-0069
X00015Y-00685
Y-00735
Y-00635
Y-00585
Y-00535
Y-00485
Y-00435
Y-00385
Y-00335
Y-00285
Y-00235
Y-00185
Y-00135
Y-00085
Y-00015
X0007
X0012Y-00015
X0017721Y-0001806
X00177264Y-0002781
X0018721Y-0002806
Y-0001806
X0019721
X0021271Y-0001706
X00224406Y-0002806
X00220406Y-0004306
X00283406
X00279406Y-0002806
X00289406Y-0001806
X00304906
X00314906
X00324906
Y-0002806
X00314906
X0036Y-00015
X0041
Y-00085
Y-00135
X0036
Y-00085
X0025055Y-00081542
Y-00109542
X00237723Y-00140442
X00263377
X00259977Y-00233204
X002797Y-002274
X002837Y-002424
X003152Y-002274
Y-002174
X003052
X003252
Y-002274
X00359977Y-00233204
Y-00283204
Y-00333204
X00409977
Y-00283204
Y-00233204
X0022275Y-002274
X0021875Y-002414
X0018725Y-002274
X0017725
Y-002174
X0018725
X0019725
X00159977Y-00283703
Y-00333703
X00251124Y-00311016
Y-00283016
X0007Y-00235
X0006Y-00185
X0011
Y-00085
X0007
X0016
Y-00135
X0026Y-00015
X00450387Y-00019187
Y-00029187
X00460387
Y-00019187
X00470387
X00485887
X00495887Y-00029187
X00491887Y-00044187
X0052Y-00015
X00562837Y-00018187
X00578337
X00588337
Y-00028187
X00598337
Y-00018187
X00635Y-00015
X0067Y-00015
X0072Y-00015
X0077Y-00015
X0066Y-00085
X0061
Y-00135
X0066
X006582Y-001664
X006472Y-001764
X00630799Y-00192493
X006272Y-002354
X00598377Y-00227527
Y-00217527
X00588377
X00578377
X00588377Y-00227527
X00594977Y-00243204
X00556877Y-00242527
X00552877Y-00227527
X00509977Y-00233204
X00495927Y-00227527
X00491927Y-00242527
X00499977Y-00278204
X00524063Y-00283889
Y-00310889
X00559977Y-00278204
X00609977Y-00283204
X00644977Y-00293703
X006602Y-002674
X006712Y-002564
X006832Y-002444
X006982Y-002294
X006992Y-002084
X007Y-00185
X00745Y-0018
X0073569Y-0020349
Y-0022127
Y-0023905
Y-0025683
Y-0027461
Y-0029239
X007928Y-0033643
X008042Y-003364
X00812144Y-0032795
X007982Y-002344
X007838Y-0021242
X0081Y-00185
X006597Y-0033365
X00609977Y-00333204
X00453977Y-00283204
X00450427Y-00227527
X00460427
Y-00217527
X00450427
X00470427
X00509642Y-00139637
X00539642
X00524642Y-00109637
Y-00082637
X0055Y-00075
X00556837Y-00043187
X00552837Y-00028187
X0045Y-00085
X0087Y-00085
X00915
X00955
Y-00015
X00915Y-00015
X0087Y-00015
X0082Y-00015
X0087Y-00135
X0087Y-0018
X008603Y-0019842
X008282Y-001944
X00886Y-00245
X008632Y-002844
X00842098Y-00311186
X00837646Y-00326352
X008472Y-003384
X008582Y-003364
X008253Y-0033942
X00955Y-00195
X009192Y000956
T02
X0020121Y-00751813
X0030535
X00473372Y-00751939
X00578615Y-00752028
Y-00726628
Y-00701227
Y-00675827
X00473372Y-0067574
Y-0070114
Y-0072654
X00474237Y-00549227
Y-00523827
Y-00498427
Y-00473027
X00578377
Y-00498427
Y-00523827
Y-00549227
Y-00342727
X00470427
X003052Y-003426
X0019725
X0019979Y-004729
Y-004983
Y-005237
Y-005491
X003052
Y-005237
Y-004983
Y-004729
X0030535Y-00675612
Y-00701012
Y-00726413
X0020121
Y-00701012
Y-00675612
X0019725Y-003172
Y-002918
Y-002664
X003052
Y-002918
Y-003172
X00304906Y-0014126
Y-0011586
Y-0009046
Y-0006506
X0019721
Y-0009046
Y-0011586
Y-0014126
X00470387Y-00141387
Y-00115987
Y-00090587
Y-00065187
X00578337
Y-00090587
Y-00115987
Y-00141387
X00578377Y-00266527
Y-00291927
Y-00317327
X00470427
Y-00291927
Y-00266527
T03
X009046Y-007026
X0093
Y-006772
Y-006518
Y-006264
Y-00601
Y-005756
Y-005502
Y-005248
Y-004994
Y-00474
X009046
Y-004994
Y-005248
Y-005502
Y-005756
Y-00601
Y-006264
Y-006518
Y-006772
Y-004486
Y-004232
X0093
Y-003978
X009046
Y-003724
X0093
Y-00347
X009046
X0093Y-004486
X0075855Y-00143706
Y-00118306
Y-00092953
Y-00067553
X007014
Y-00092953
Y-00118306
Y-00143706
X008157Y-00143753
Y-00118353
Y-00093
Y-000676
X009046Y-0022
Y-002454
Y-002708
Y-002962
Y-003216
X0093
Y-002962
Y-002708
Y-002454
Y-0022
T04
X00060627Y-00530199
Y-00480199
X0006031Y-00333592
Y-00283592
T05
X00075Y-00775
X00925
X00075Y-00145
X00925
M30
